<?xml version="1.0" standalone="no"?>
<!DOCTYPE svg PUBLIC "-//W3C//DTD SVG 20010904//EN"
 "http://www.w3.org/TR/2001/REC-SVG-20010904/DTD/svg10.dtd">
<svg version="1.0" xmlns="http://www.w3.org/2000/svg"
 width="235.000000pt" height="235.000000pt" viewBox="0 0 235.000000 235.000000"
 preserveAspectRatio="xMidYMid meet">
<metadata>
Created by potrace 1.11, written by Peter Selinger 2001-2013
</metadata>
<g transform="translate(0.000000,235.000000) scale(0.100000,-0.100000)"
fill="#000000" stroke="none">
<path d="M808 2115 c-2 -2 -25 -6 -53 -9 -185 -25 -325 -113 -409 -256 -56
-96 -116 -269 -141 -408 -2 -15 -9 -52 -15 -82 -6 -30 -13 -71 -16 -90 -3 -19
-7 -46 -9 -60 -12 -67 -19 -141 -19 -197 -1 -35 -4 -63 -8 -63 -4 0 -5 -7 -1
-17 8 -21 8 -81 0 -90 -4 -3 -3 -11 2 -17 5 -6 11 -36 14 -66 2 -30 6 -62 10
-70 3 -8 11 -37 18 -65 18 -70 72 -172 116 -221 172 -186 500 -233 840 -119
90 30 373 170 381 188 2 4 8 7 13 7 11 0 133 86 201 143 26 21 52 36 58 32 6
-4 10 -3 9 2 -3 18 2 33 11 33 5 0 42 34 82 76 40 43 83 87 95 100 33 33 153
215 153 230 0 8 5 14 12 14 6 0 8 3 5 6 -3 4 -2 15 4 26 19 35 24 71 24 158
-1 69 -5 95 -25 135 -13 28 -23 58 -23 67 0 10 -3 15 -8 12 -4 -2 -13 6 -20
18 -18 34 -117 135 -171 175 -27 19 -46 39 -43 44 4 5 0 6 -8 3 -8 -3 -20 2
-27 11 -7 8 -18 15 -26 15 -7 0 -18 8 -23 18 -6 9 -11 14 -11 10 0 -3 -30 10
-67 31 -38 20 -103 52 -145 71 -42 19 -74 39 -71 44 3 5 1 6 -5 2 -7 -4 -28 0
-47 8 -19 9 -50 23 -69 31 -19 8 -36 15 -39 15 -3 0 -18 5 -34 12 -15 6 -31
12 -35 13 -5 2 -9 3 -10 5 -2 1 -10 3 -19 5 -9 1 -41 10 -70 18 -30 8 -79 20
-109 26 -30 6 -68 13 -85 16 -35 7 -182 15 -187 10z"/>
</g>
</svg>
